<svg width="84" height="21" viewBox="0 0 84 21" fill="none" xmlns="http://www.w3.org/2000/svg">
<path d="M49.6462 2.66936C49.6462 3.59936 49.796 4.46936 50.0656 5.24936C50.3353 6.02936 50.7247 6.68936 51.1741 7.25936C51.6534 7.82936 52.1926 8.33936 52.8217 8.69936C53.4508 9.05936 54.0799 9.32936 54.739 9.41936L53.1512 10.7994C52.642 10.7394 52.1027 10.6194 51.5336 10.3794C50.9943 10.1394 50.4551 9.86936 49.9758 9.53936C49.4965 9.20936 49.0771 8.81936 48.7176 8.39936C48.3581 7.97936 48.1184 7.55936 47.9686 7.10936C47.8189 7.55936 47.5792 7.97936 47.2197 8.39936C46.8602 8.81936 46.4408 9.20936 45.9615 9.53936C45.5122 9.89936 45.0029 10.1994 44.4337 10.4094C43.8945 10.6494 43.3552 10.7694 42.846 10.8294L41.2283 9.44936C41.8873 9.32936 42.5164 9.08936 43.1455 8.72936C43.7447 8.36936 44.2839 7.85936 44.7632 7.28936C45.2425 6.68936 45.632 5.99936 45.9316 5.21936C46.2012 4.43936 46.351 3.59936 46.351 2.66936V1.79936C46.351 1.61936 46.291 1.40936 46.1712 1.22936C46.0514 1.04936 45.9316 0.899355 45.7818 0.749355C45.6619 0.629355 45.5121 0.509355 45.3923 0.419355C45.2725 0.329355 45.2126 0.269355 45.2126 0.269355H50.7547C50.7247 0.299355 50.6648 0.329355 50.5749 0.419355C50.4551 0.509355 50.3353 0.629355 50.2154 0.749355C50.0656 0.869355 49.9458 1.04936 49.826 1.22936C49.7062 1.40936 49.6762 1.61936 49.6762 1.79936V2.66936H49.6462ZM53.0913 11.6094C53.8403 11.6094 54.5293 11.7294 55.1883 11.9994C55.8474 12.2394 56.4166 12.5994 56.8959 13.0194C57.3752 13.4394 57.7646 13.9494 58.0642 14.5194C58.3338 15.0894 58.4836 15.6894 58.4836 16.3494C58.4836 17.0094 58.3338 17.6394 58.0642 18.2094C57.7946 18.7794 57.4052 19.2894 56.8959 19.7094C56.4166 20.0994 55.8474 20.3994 55.1883 20.6394C54.5293 20.8794 53.8403 20.9994 53.0913 20.9994C52.3424 20.9994 51.6234 20.8794 50.9644 20.6394C50.3053 20.3994 49.7361 20.0994 49.2268 19.6494C48.7475 19.2294 48.3581 18.7194 48.0885 18.1494C47.8189 17.5794 47.6691 16.9494 47.6691 16.2894C47.6691 15.6294 47.8189 15.0294 48.0885 14.4594C48.3581 13.8894 48.7475 13.3794 49.2268 12.9594C49.7062 12.5394 50.2753 12.2094 50.9344 11.9394C51.6234 11.7294 52.3124 11.6094 53.0913 11.6094ZM53.0913 13.4994C52.5221 13.4994 52.0129 13.7994 51.5635 14.3694C51.1441 14.9394 50.9044 15.5994 50.9044 16.3194C50.9044 17.0394 51.1141 17.6994 51.5635 18.2694C51.9829 18.8394 52.4922 19.1094 53.0913 19.1094C53.6905 19.1094 54.1698 18.8394 54.6191 18.2694C55.0385 17.6994 55.2782 17.0694 55.2782 16.3194C55.2782 15.5694 55.0685 14.9394 54.6191 14.3694C54.1698 13.7694 53.6605 13.4994 53.0913 13.4994ZM55.6377 1.58936C55.6377 1.37936 55.5778 1.16936 55.4579 1.01936C55.3381 0.839355 55.2183 0.689355 55.0685 0.569355C54.9487 0.419355 54.7989 0.299355 54.6791 0.239355C54.5592 0.149355 54.4993 0.119355 54.4694 0.0893555H60.0713C60.0414 0.119355 59.9515 0.149355 59.8317 0.239355C59.7119 0.329355 59.5621 0.449355 59.4423 0.569355C59.3224 0.689355 59.2026 0.869355 59.0828 1.01936C58.9629 1.19936 58.903 1.37936 58.903 1.58936V3.77936H61.03C61.3595 3.77936 61.6591 3.71936 61.8688 3.59936C62.0785 3.47936 62.1983 3.41936 62.1983 3.38936V5.99936C62.1684 5.99936 62.0785 5.93936 61.8688 5.81936C61.6591 5.69936 61.3895 5.63936 61.03 5.63936H58.903V11.4594H55.6077V1.58936H55.6377Z" fill="#C79A3B"/>
<path d="M65.3738 2.28C65.0443 2.28 64.6548 2.43 64.2055 2.76V0.45H74.9901V2.79C74.9601 2.79 74.8702 2.7 74.6605 2.55C74.4508 2.4 74.1812 2.31 73.8517 2.31H71.2454V2.91C71.2454 3.84 71.3952 4.71 71.6648 5.49C71.9344 6.27 72.3239 6.93 72.7732 7.5C73.2525 8.1 73.7918 8.58 74.3909 8.94C75.02 9.3 75.6491 9.57 76.3082 9.66L74.6905 11.04C74.1812 10.98 73.642 10.86 73.1028 10.62C72.5635 10.38 72.0543 10.11 71.545 9.78C71.0657 9.45 70.6463 9.06 70.2868 8.64C69.9273 8.22 69.6876 7.8 69.5378 7.35C69.3881 7.8 69.1484 8.22 68.7889 8.64C68.4294 9.06 68.01 9.45 67.5307 9.78C67.0514 10.11 66.5421 10.41 66.0029 10.62C65.4637 10.86 64.9244 10.98 64.4152 11.04L62.7975 9.66C63.4565 9.54 64.0856 9.3 64.7147 8.94C65.3139 8.58 65.8531 8.1 66.3324 7.5C66.8117 6.93 67.1712 6.24 67.4708 5.46C67.7404 4.68 67.8902 3.84 67.8902 2.91V2.31H65.3738V2.28ZM67.0814 13.98C67.0814 13.77 67.0214 13.56 66.9016 13.38C66.7818 13.2 66.662 13.02 66.5122 12.9C66.3624 12.78 66.2426 12.66 66.1227 12.57C66.0029 12.48 65.943 12.45 65.943 12.42H80.8617V20.19H69.3581C68.6691 20.19 68.0999 19.98 67.6805 19.59C67.2911 19.2 67.0814 18.66 67.0814 18V13.98ZM77.5664 18.33V14.31H70.3467V18.3H77.5664V18.33ZM77.5664 1.53C77.5664 1.32 77.5065 1.11 77.3866 0.96C77.2668 0.78 77.147 0.63 76.9972 0.51C76.8474 0.36 76.7276 0.24 76.6078 0.18C76.4879 0.06 76.428 0.03 76.428 0H82.0001C81.9701 0.03 81.9102 0.06 81.7903 0.15C81.6705 0.24 81.5207 0.33 81.4009 0.48C81.2811 0.6 81.1612 0.75 81.0414 0.93C80.9216 1.11 80.8617 1.29 80.8617 1.5V11.1H77.5664V6.09H74.9002C74.6006 6.09 74.2112 6.24 73.7319 6.54V4.23H77.5664V1.53Z" fill="#C79A3B"/>
<path d="M1.38936 5.06095C1.38936 2.40194 0.246997 2.03092 0 2H6.57629C6.39104 2.03092 5.15606 2.30919 5.15606 5.06095V17.6139H8.83013C11.3619 17.6139 12.1337 17.3666 13.2452 15.4187L12.5042 20.1184H0.123498C0.308746 20.0874 1.38936 19.8092 1.38936 16.7482V5.06095Z" fill="#C79A3B"/>
<path d="M13.8318 13.965C13.8318 9.94556 16.6414 6.91553 20.5624 6.91553C24.5761 6.91553 27.1387 9.63637 27.1387 13.4394C27.1387 17.4279 24.4835 20.5198 20.3154 20.5198C16.3017 20.5198 13.8318 17.768 13.8318 13.965ZM23.5881 13.9959C23.5881 11.5843 22.3223 9.3581 20.2537 9.3581C18.463 9.3581 17.4132 11.1205 17.4132 13.3466C17.4132 15.7892 18.7099 18.0772 20.7477 18.0772C22.4766 18.0772 23.5881 16.253 23.5881 13.9959Z" fill="#C79A3B"/>
<path d="M29.3 5.06095C29.3 2.40194 28.1576 2.03092 27.9106 2H34.4869C34.3017 2.03092 33.0667 2.30919 33.0667 5.06095V17.6139H36.7407C39.2725 17.6139 40.0443 17.3666 41.1558 15.4187L40.4148 20.1184H28.0341C28.1885 20.0874 29.3 19.8092 29.3 16.7482V5.06095Z" fill="#C79A3B"/>
</svg>
